<svg xmlns="http://www.w3.org/2000/svg" viewBox="176 176 48 48"><linearGradient id="a" gradientUnits="userSpaceOnUse" x1="341.762" y1="90.955" x2="341.762" y2="92.331" gradientTransform="translate(-11666.799 -2982.078) scale(34.7225)"><stop offset="0" stop-color="#fff"/><stop offset="1" stop-color="#eaeaea"/></linearGradient><path fill="url(#a)" d="M223.904 217.929c0 3.3-2.677 5.976-5.976 5.976h-35.856a5.977 5.977 0 0 1-5.977-5.976v-35.856c0-3.3 2.676-5.977 5.977-5.977h35.856c3.3 0 5.976 2.677 5.976 5.977v35.856z"/><g fill-rule="evenodd" clip-rule="evenodd" fill="#E6E6E6"><path d="M189.897 194.724c2.914-1.658 6.069-2.337 9.31-2.542.12-.954.149-1.837.35-2.679.791-3.312 3.165-4.683 6.668-3.773 1.127.292 1.867.438 2.934-.515 2.311-2.062 5.875-.683 6.584 2.326.498 2.12-1.342 4.508-3.559 4.616-2.615.129-4.131-1.131-4.623-3.817a.681.681 0 0 0-.318-.429c-1.154-.558-2.381-.843-3.652-.648-.975.15-1.658.819-1.926 1.731-.291.989-.393 2.034-.596 3.162.938.131 1.699.246 2.465.343 2.117.267 4.117.924 6.004 1.904.477.247.793.22 1.236-.07 2.57-1.688 5.793-.64 7.064 2.144.711 1.554-.018 3.753-1.684 4.966-.234.169-.482.53-.471.791.184 4.017-1.959 6.692-5.1 8.719-2.518 1.624-5.336 2.396-8.328 2.69-4.792.471-9.258-.362-13.299-3.041-2.427-1.607-4.08-3.784-4.553-6.735-.005-.029-.027-.061-.021-.085.415-1.589-.697-2.406-1.565-3.474-2.135-2.623-.243-5.671 2.28-6.542 1.588-.548 3.085-.226 4.8.958zm9.869-.666c-3.928-.092-8.131 1.347-10.652 3.525-2.672 2.31-3.826 5.586-1.7 8.884 1.006 1.559 2.438 2.637 4.063 3.467 4.158 2.122 8.543 2.405 13.037 1.466 2.799-.586 5.309-1.781 7.322-3.892 2.145-2.247 2.564-5.235.855-7.812-.719-1.084-1.713-2.071-2.775-2.828-2.928-2.084-6.301-2.808-10.15-2.81zm11.933-8.059c-1.238-.003-2.285.977-2.307 2.157-.021 1.173 1.111 2.263 2.332 2.242 1.211-.019 2.227-1.032 2.225-2.222 0-1.208-1-2.175-2.25-2.177zm3.494 13.733c1.178-.854 1.205-2.179.543-3.161-.678-1.004-2.338-1.627-3.701-.762l3.158 3.923zm-27.184-3.944c-1.372-.867-3.173-.107-3.705.807-.7 1.201-.453 2.406.592 3.112l3.113-3.919z"/><path d="M199.832 209.571a10.215 10.215 0 0 1-5.885-1.553c-.611-.378-.837-.864-.481-1.446.36-.59.975-.479 1.471-.161 1.146.737 2.394 1.062 3.734 1.26 2.072.307 3.966-.178 5.833-.955.318-.132.619-.444.922-.438.41.008.982.126 1.184.41.287.405.168.943-.383 1.25-1.991 1.105-4.104 1.717-6.395 1.633zM192.294 200.998c.028-1.087 1.041-2.013 2.142-1.958 1.092.054 2.057 1.053 2.035 2.108-.023 1.114-.96 1.972-2.138 1.958-1.208-.014-2.069-.904-2.039-2.108zM207.75 201.132c-.012 1.119-.939 1.994-2.098 1.977-1.154-.017-2.109-.935-2.102-2.021.008-1.03 1.043-2.031 2.115-2.049 1.198-.018 2.099.886 2.085 2.093z"/></g><g fill-rule="evenodd" clip-rule="evenodd"><path d="M189.897 195.724c2.914-1.658 6.069-2.337 9.31-2.542.12-.954.149-1.837.35-2.679.791-3.312 3.165-4.683 6.668-3.773 1.127.292 1.867.438 2.934-.515 2.311-2.062 5.875-.683 6.584 2.326.498 2.12-1.342 4.508-3.559 4.616-2.615.129-4.131-1.131-4.623-3.817a.681.681 0 0 0-.318-.429c-1.154-.558-2.381-.843-3.652-.648-.975.15-1.658.819-1.926 1.731-.291.989-.393 2.034-.596 3.162.938.131 1.699.246 2.465.343 2.117.267 4.117.924 6.004 1.904.477.247.793.22 1.236-.07 2.57-1.688 5.793-.64 7.064 2.144.711 1.554-.018 3.753-1.684 4.966-.234.169-.482.53-.471.791.184 4.017-1.959 6.692-5.1 8.719-2.518 1.624-5.336 2.396-8.328 2.69-4.792.471-9.258-.362-13.299-3.041-2.427-1.607-4.08-3.784-4.553-6.735-.005-.029-.027-.061-.021-.085.415-1.589-.697-2.406-1.565-3.474-2.135-2.623-.243-5.671 2.28-6.542 1.588-.548 3.085-.226 4.8.958zm9.869-.666c-3.928-.092-8.131 1.347-10.652 3.525-2.672 2.31-3.826 5.586-1.7 8.884 1.006 1.559 2.438 2.637 4.063 3.467 4.158 2.122 8.543 2.405 13.037 1.466 2.799-.586 5.309-1.781 7.322-3.892 2.145-2.247 2.564-5.235.855-7.812-.719-1.084-1.713-2.071-2.775-2.828-2.928-2.084-6.301-2.808-10.15-2.81zm11.933-8.059c-1.238-.003-2.285.977-2.307 2.157-.021 1.173 1.111 2.263 2.332 2.242 1.211-.019 2.227-1.032 2.225-2.222 0-1.208-1-2.175-2.25-2.177zm3.494 13.733c1.178-.854 1.205-2.179.543-3.161-.678-1.004-2.338-1.627-3.701-.762l3.158 3.923zm-27.184-3.944c-1.372-.867-3.173-.107-3.705.807-.7 1.201-.453 2.406.592 3.112l3.113-3.919z"/><path d="M199.832 210.571a10.215 10.215 0 0 1-5.885-1.553c-.611-.378-.837-.864-.481-1.446.36-.59.975-.479 1.471-.161 1.146.737 2.394 1.062 3.734 1.26 2.072.307 3.966-.178 5.833-.955.318-.132.619-.444.922-.438.41.008.982.126 1.184.41.287.405.168.943-.383 1.25-1.991 1.105-4.104 1.717-6.395 1.633z"/><path fill="#F00" d="M192.294 201.998c.028-1.087 1.041-2.013 2.142-1.958 1.092.054 2.057 1.053 2.035 2.108-.023 1.114-.96 1.972-2.138 1.958-1.208-.014-2.069-.904-2.039-2.108zM207.75 202.132c-.012 1.119-.939 1.994-2.098 1.977-1.154-.017-2.109-.935-2.102-2.021.008-1.03 1.043-2.031 2.115-2.049 1.198-.018 2.099.886 2.085 2.093z"/></g></svg>